{"accessors" : [{"bufferView" : 0, "byteOffset" : 0, "componentType" : 5123, "count" : 1248, "type" : "SCALAR", "max" : [1025], "min" : [0]}, {"bufferView" : 1, "byteOffset" : 0, "componentType" : 5126, "count" : 1026, "type" : "VEC3", "max" : [1.179023027420044, 1.3207294940948486, 1], "min" : [-1.179023027420044, -0.8631395101547241, -1], "name" : "POSITION"}, {"bufferView" : 1, "byteOffset" : 12, "componentType" : 5126, "count" : 1026, "type" : "VEC3", "max" : [0.9894481897354126, 0.9999825954437256, 0.9990138411521912], "min" : [-0.9894481897354126, -1.0000044107437134, -0.9990125298500061], "name" : "NORMAL"}, {"bufferView" : 1, "byteOffset" : 24, "componentType" : 5126, "count" : 1026, "type" : "VEC2", "max" : [0.5528841018676758, 1.2525219917297363], "min" : [0.008790619671344757, 1.0019965171813965], "name" : "TEXCOORD_0"}, {"bufferView" : 0, "byteOffset" : 2496, "componentType" : 5123, "count" : 1740, "type" : "SCALAR", "max" : [1421], "min" : [0]}, {"bufferView" : 2, "byteOffset" : 0, "componentType" : 5126, "count" : 1422, "type" : "VEC3", "max" : [1.8853551149368286, 0.8002713918685913, 0.8516572117805481], "min" : [-1.8853551149368286, -2.0279181003570557, -0.8507550358772278], "name" : "POSITION"}, {"bufferView" : 2, "byteOffset" : 12, "componentType" : 5126, "count" : 1422, "type" : "VEC3", "max" : [0.9982795715332031, 1.0000044107437134, 0.9999066591262817], "min" : [-0.9982795715332031, -0.9998128414154053, -0.9998514652252197], "name" : "NORMAL"}, {"bufferView" : 2, "byteOffset" : 24, "componentType" : 5126, "count" : 1422, "type" : "VEC2", "max" : [0.9903343319892883, 1.9435181617736816], "min" : [0.5273404717445374, 1.0236632823944092], "name" : "TEXCOORD_0"}, {"bufferView" : 0, "byteOffset" : 5976, "componentType" : 5123, "count" : 816, "type" : "SCALAR", "max" : [650], "min" : [0]}, {"bufferView" : 3, "byteOffset" : 0, "componentType" : 5126, "count" : 651, "type" : "VEC3", "max" : [1.526777744293213, 0.8891721963882446, 1.3018426895141602], "min" : [-1.526777744293213, -0.8527954816818237, -1.2343449592590332], "name" : "POSITION"}, {"bufferView" : 3, "byteOffset" : 12, "componentType" : 5126, "count" : 651, "type" : "VEC3", "max" : [0.9728482365608215, 0.9999833106994629, 0.9843772053718567], "min" : [-0.9728482365608215, -0.9789468050003052, -0.9883682131767273], "name" : "NORMAL"}, {"bufferView" : 3, "byteOffset" : 24, "componentType" : 5126, "count" : 651, "type" : "VEC2", "max" : [0.5329031944274902, 1.9875338077545166], "min" : [0.006440738216042519, 1.3569003343582153], "name" : "TEXCOORD_0"}], "asset" : {"generator" : "Aspose.3D 24.1.0", "version" : "2.0"}, "buffers" : [{"uri" : "data:application/octet-stream;base64,", "byteLength" : 129352}], "bufferViews" : [{"buffer" : 0, "byteOffset" : 0, "byteLength" : 7608, "target" : 34963}, {"buffer" : 0, "byteOffset" : 7612, "byteLength" : 39936, "byteStride" : 32, "target" : 34962}, {"buffer" : 0, "byteOffset" : 47552, "byteLength" : 55680, "byteStride" : 32, "target" : 34962}, {"buffer" : 0, "byteOffset" : 103236, "byteLength" : 26112, "byteStride" : 32, "target" : 34962}], "images" : [{"uri" : "data:image/png;base64,"}], "materials" : [{"name" : "froggy_material", "pbrMetallicRoughness" : {"baseColorFactor" : [1, 1, 1, 1], "baseColorTexture" : {"index" : 0, "texCoord" : 0}, "metallicFactor" : 0, "roughnessFactor" : 0.5}, "emissiveFactor" : [0, 0, 0], "alphaMode" : "OPAQUE", "doubleSided" : true}, {"name" : "froggy_material", "pbrMetallicRoughness" : {"baseColorFactor" : [1, 1, 1, 1], "baseColorTexture" : {"index" : 0, "texCoord" : 0}, "metallicFactor" : 0, "roughnessFactor" : 0.5}, "emissiveFactor" : [0, 0, 0], "alphaMode" : "OPAQUE", "doubleSided" : true}, {"name" : "froggy_material", "pbrMetallicRoughness" : {"baseColorFactor" : [1, 1, 1, 1], "baseColorTexture" : {"index" : 0, "texCoord" : 0}, "metallicFactor" : 0, "roughnessFactor" : 0.5}, "emissiveFactor" : [0, 0, 0], "alphaMode" : "OPAQUE", "doubleSided" : true}], "meshes" : [{"primitives" : [{"attributes" : {"POSITION" : 1, "NORMAL" : 2, "TEXCOORD_0" : 3}, "indices" : 0, "material" : 0, "mode" : 4}]}, {"primitives" : [{"attributes" : {"POSITION" : 5, "NORMAL" : 6, "TEXCOORD_0" : 7}, "indices" : 4, "material" : 1, "mode" : 4}]}, {"primitives" : [{"attributes" : {"POSITION" : 9, "NORMAL" : 10, "TEXCOORD_0" : 11}, "indices" : 8, "material" : 2, "mode" : 4}]}], "nodes" : [{"matrix" : [1, 0, 0, 0, 0, 1, 0, 0, 0, 0, 1, 0, 0, 0.038897186517715454, 0, 1], "mesh" : 0, "name" : "head"}, {"matrix" : [0.5590051412582397, 0, 0, 0, 0, 0.5590051412582397, 0, 0, 0, 0, 0.5590051412582397, 0, 0, -1.0977649688720703, 0, 1], "mesh" : 1, "name" : "body"}, {"matrix" : [0.5590051412582397, 0, 0, 0, 0, 0.5590051412582397, 0, 0, 0, 0, 0.5590051412582397, 0, 0, -1.0977649688720703, 0, 1], "mesh" : 2, "name" : "tshirt"}], "samplers" : [{"magFilter" : 9728, "minFilter" : 9984, "wrapS" : 10497, "wrapT" : 10497}], "scene" : 0, "scenes" : [{"nodes" : [0, 1, 2]}], "textures" : [{"sampler" : 0, "source" : 0, "name" : ""}]}