{"accessors" : [{"bufferView" : 0, "byteOffset" : 0, "componentType" : 5123, "count" : 60, "type" : "SCALAR", "max" : [49], "min" : [0]}, {"bufferView" : 1, "byteOffset" : 0, "componentType" : 5126, "count" : 50, "type" : "VEC3", "max" : [0.8809887170791626, 0.08767539262771606, 0.907375693321228], "min" : [-0.8809887170791626, -0.14761632680892944, -1.092624306678772], "name" : "POSITION"}, {"bufferView" : 1, "byteOffset" : 12, "componentType" : 5126, "count" : 50, "type" : "VEC2", "max" : [0.9738801717758179, 1.9954630136489868], "min" : [0.004537045955657959, 1.0045371055603027], "name" : "TEXCOORD_0"}, {"bufferView" : 1, "byteOffset" : 20, "componentType" : 5126, "count" : 50, "type" : "VEC3", "max" : [0.9235235452651978, 0.9999868273735046, 0.9561806917190552], "min" : [-0.9235234260559082, -0.986603319644928, -0.7501224875450134], "name" : "NORMAL"}], "asset" : {"generator" : "Aspose.3D 24.1.0", "version" : "2.0"}, "buffers" : [{"uri" : "data:application/octet-stream;base64,", "byteLength" : 2048}], "bufferViews" : [{"buffer" : 0, "byteOffset" : 0, "byteLength" : 120, "target" : 34963}, {"buffer" : 0, "byteOffset" : 124, "byteLength" : 1920, "byteStride" : 32, "target" : 34962}], "images" : [{"uri" : "data:image/png;base64,"}], "materials" : [{"name" : "Material.001", "pbrMetallicRoughness" : {"baseColorFactor" : [1, 1, 1, 1], "baseColorTexture" : {"index" : 0, "texCoord" : 0}, "metallicFactor" : 0, "roughnessFactor" : 0.5}, "emissiveFactor" : [0, 0, 0], "alphaMode" : "OPAQUE", "doubleSided" : true}], "meshes" : [{"primitives" : [{"attributes" : {"POSITION" : 1, "TEXCOORD_0" : 2, "NORMAL" : 3}, "indices" : 0, "material" : 0, "mode" : 4}]}], "nodes" : [{"mesh" : 0, "name" : "Cube.001"}], "samplers" : [{"magFilter" : 9729, "minFilter" : 9987, "wrapS" : 10497, "wrapT" : 10497}], "scene" : 0, "scenes" : [{"nodes" : [0]}], "textures" : [{"sampler" : 0, "source" : 0, "name" : ""}]}