{
    "asset": {
        "version": "2.0",
        "generator": "Open Asset Import Library (assimp v5.2.cf7d3637)"
    },
    "extensionsUsed": [
        "KHR_materials_volume",
        "FB_ngon_encoding"
    ],
    "accessors": [
        {
            "bufferView": 0,
            "byteOffset": 0,
            "componentType": 5126,
            "count": 2058,
            "type": "VEC3",
            "max": [
                1.32063889503479,
                1.0515360832214356,
                0.6893846392631531
            ],
            "min": [
                -0.8668150901794434,
                -0.9378870129585266,
                -0.6797098517417908
            ]
        },
        {
            "bufferView": 1,
            "byteOffset": 0,
            "componentType": 5126,
            "count": 2058,
            "type": "VEC3",
            "max": [
                0.9949294924736023,
                0.9990150332450867,
                0.9918336868286133
            ],
            "min": [
                -0.9949294924736023,
                -0.9921984076499939,
                -0.9819288849830627
            ]
        },
        {
            "bufferView": 2,
            "byteOffset": 0,
            "componentType": 5126,
            "count": 2058,
            "type": "VEC2",
            "max": [
                0.9602763056755066,
                1.0009132623672486
            ],
            "min": [
                0.037297457456588748,
                0.0021281838417053224
            ]
        },
        {
            "bufferView": 3,
            "byteOffset": 0,
            "componentType": 5125,
            "count": 2058,
            "type": "SCALAR",
            "max": [
                2057
            ],
            "min": [
                0
            ]
        }
    ],
    "buffers": [
        {
            "byteLength": 74088,
            "uri": "result.bin"
        }
    ],
    "bufferViews": [
        {
            "buffer": 0,
            "byteOffset": 0,
            "byteLength": 24696,
            "target": 34962
        },
        {
            "buffer": 0,
            "byteOffset": 24696,
            "byteLength": 24696,
            "target": 34962
        },
        {
            "buffer": 0,
            "byteOffset": 49392,
            "byteLength": 16464,
            "target": 34962
        },
        {
            "buffer": 0,
            "byteOffset": 65856,
            "byteLength": 8232,
            "target": 34963
        }
    ],
    "images": [
        {
            "name": "pusheen texture",
            "uri": "data:image/png;base64,"
        }
    ],
    "materials": [
        {
            "name": "pusheen.001",
            "pbrMetallicRoughness": {
                "baseColorTexture": {
                    "index": 0
                },
                "metallicFactor": 0.0,
                "roughnessFactor": 0.5
            },
            "doubleSided": true
        },
        {
            "name": "material"
        }
    ],
    "meshes": [
        {
            "name": "Roundcube.001",
            "primitives": [
                {
                    "mode": 4,
                    "material": 0,
                    "indices": 3,
                    "attributes": {
                        "POSITION": 0,
                        "NORMAL": 1,
                        "TEXCOORD_0": 2
                    }
                }
            ]
        }
    ],
    "nodes": [
        {
            "name": "pusheenbody",
            "mesh": 0
        }
    ],
    "samplers": [
        {
            "magFilter": 9728,
            "minFilter": 9984
        }
    ],
    "scenes": [
        {
            "nodes": [
                0
            ]
        }
    ],
    "textures": [
        {
            "source": 0,
            "sampler": 0
        }
    ],
    "scene": 0
}