{
    "asset" : {
        "generator" : "Khronos glTF Blender I/O v1.7.33",
        "version" : "2.0"
    },
    "scene" : 0,
    "scenes" : [
        {
            "name" : "Scene",
            "nodes" : [
                0,
                1,
                2,
                3
            ]
        }
    ],
    "nodes" : [
        {
            "mesh" : 0,
            "name" : "Sphere.001"
        },
        {
            "mesh" : 1,
            "name" : "wing",
            "translation" : [
                0,
                0,
                -4.160131931304932
            ]
        },
        {
            "mesh" : 2,
            "name" : "Sphere.002"
        },
        {
            "mesh" : 3,
            "name" : "Sphere.003"
        }
    ],
    "materials" : [
        {
            "doubleSided" : true,
            "name" : "Material.001",
            "pbrMetallicRoughness" : {
                "baseColorTexture" : {
                    "index" : 0
                },
                "metallicFactor" : 0,
                "roughnessFactor" : 0.5
            }
        },
        {
            "doubleSided" : true,
            "name" : "Material.002",
            "pbrMetallicRoughness" : {
                "baseColorFactor" : [
                    0.3899572789669037,
                    0.40008634328842163,
                    0.8000000715255737,
                    1
                ],
                "metallicFactor" : 0,
                "roughnessFactor" : 0.5
            }
        }
    ],
    "meshes" : [
        {
            "name" : "Sphere.002",
            "primitives" : [
                {
                    "attributes" : {
                        "POSITION" : 0,
                        "NORMAL" : 1,
                        "TEXCOORD_0" : 2
                    },
                    "indices" : 3,
                    "material" : 0
                }
            ]
        },
        {
            "name" : "Sphere.003",
            "primitives" : [
                {
                    "attributes" : {
                        "POSITION" : 4,
                        "NORMAL" : 5,
                        "TEXCOORD_0" : 6
                    },
                    "indices" : 7,
                    "material" : 1
                }
            ]
        },
        {
            "name" : "Sphere.004",
            "primitives" : [
                {
                    "attributes" : {
                        "POSITION" : 8,
                        "NORMAL" : 9,
                        "TEXCOORD_0" : 10
                    },
                    "indices" : 11,
                    "material" : 1
                }
            ]
        },
        {
            "name" : "Sphere.005",
            "primitives" : [
                {
                    "attributes" : {
                        "POSITION" : 12,
                        "NORMAL" : 13,
                        "TEXCOORD_0" : 14
                    },
                    "indices" : 15,
                    "material" : 1
                }
            ]
        }
    ],
    "textures" : [
        {
            "sampler" : 0,
            "source" : 0
        }
    ],
    "images" : [
        {
            "bufferView" : 4,
            "mimeType" : "image/png",
            "name" : "wingman"
        }
    ],
    "accessors" : [
        {
            "bufferView" : 0,
            "componentType" : 5126,
            "count" : 7936,
            "max" : [
                1.2346588373184204,
                1,
                0.9999995231628418
            ],
            "min" : [
                -1.2358700037002563,
                -0.8880800008773804,
                -1.1019954681396484
            ],
            "type" : "VEC3"
        },
        {
            "bufferView" : 1,
            "componentType" : 5126,
            "count" : 7936,
            "type" : "VEC3"
        },
        {
            "bufferView" : 2,
            "componentType" : 5126,
            "count" : 7936,
            "type" : "VEC2"
        },
        {
            "bufferView" : 3,
            "componentType" : 5123,
            "count" : 11520,
            "type" : "SCALAR"
        },
        {
            "bufferView" : 5,
            "componentType" : 5126,
            "count" : 3840,
            "max" : [
                1.430769920349121,
                1.2494275569915771,
                5.243409633636475
            ],
            "min" : [
                -1.4290097951889038,
                -0.2336144745349884,
                5.012688159942627
            ],
            "type" : "VEC3"
        },
        {
            "bufferView" : 6,
            "componentType" : 5126,
            "count" : 3840,
            "type" : "VEC3"
        },
        {
            "bufferView" : 7,
            "componentType" : 5126,
            "count" : 3840,
            "type" : "VEC2"
        },
        {
            "bufferView" : 8,
            "componentType" : 5123,
            "count" : 6840,
            "type" : "SCALAR"
        },
        {
            "bufferView" : 9,
            "componentType" : 5126,
            "count" : 1984,
            "max" : [
                0.709770917892456,
                -0.6219322085380554,
                0.2647416591644287
            ],
            "min" : [
                0.050187841057777405,
                -1.252415657043457,
                -0.3948408365249634
            ],
            "type" : "VEC3"
        },
        {
            "bufferView" : 10,
            "componentType" : 5126,
            "count" : 1984,
            "type" : "VEC3"
        },
        {
            "bufferView" : 11,
            "componentType" : 5126,
            "count" : 1984,
            "type" : "VEC2"
        },
        {
            "bufferView" : 12,
            "componentType" : 5123,
            "count" : 2880,
            "type" : "SCALAR"
        },
        {
            "bufferView" : 13,
            "componentType" : 5126,
            "count" : 1984,
            "max" : [
                -0.0458802729845047,
                -0.6219322085380554,
                0.26549863815307617
            ],
            "min" : [
                -0.7054632902145386,
                -1.252415657043457,
                -0.394084095954895
            ],
            "type" : "VEC3"
        },
        {
            "bufferView" : 14,
            "componentType" : 5126,
            "count" : 1984,
            "type" : "VEC3"
        },
        {
            "bufferView" : 15,
            "componentType" : 5126,
            "count" : 1984,
            "type" : "VEC2"
        },
        {
            "bufferView" : 16,
            "componentType" : 5123,
            "count" : 2880,
            "type" : "SCALAR"
        }
    ],
    "bufferViews" : [
        {
            "buffer" : 0,
            "byteLength" : 95232,
            "byteOffset" : 0
        },
        {
            "buffer" : 0,
            "byteLength" : 95232,
            "byteOffset" : 95232
        },
        {
            "buffer" : 0,
            "byteLength" : 63488,
            "byteOffset" : 190464
        },
        {
            "buffer" : 0,
            "byteLength" : 23040,
            "byteOffset" : 253952
        },
        {
            "buffer" : 0,
            "byteLength" : 100622,
            "byteOffset" : 276992
        },
        {
            "buffer" : 0,
            "byteLength" : 46080,
            "byteOffset" : 377616
        },
        {
            "buffer" : 0,
            "byteLength" : 46080,
            "byteOffset" : 423696
        },
        {
            "buffer" : 0,
            "byteLength" : 30720,
            "byteOffset" : 469776
        },
        {
            "buffer" : 0,
            "byteLength" : 13680,
            "byteOffset" : 500496
        },
        {
            "buffer" : 0,
            "byteLength" : 23808,
            "byteOffset" : 514176
        },
        {
            "buffer" : 0,
            "byteLength" : 23808,
            "byteOffset" : 537984
        },
        {
            "buffer" : 0,
            "byteLength" : 15872,
            "byteOffset" : 561792
        },
        {
            "buffer" : 0,
            "byteLength" : 5760,
            "byteOffset" : 577664
        },
        {
            "buffer" : 0,
            "byteLength" : 23808,
            "byteOffset" : 583424
        },
        {
            "buffer" : 0,
            "byteLength" : 23808,
            "byteOffset" : 607232
        },
        {
            "buffer" : 0,
            "byteLength" : 15872,
            "byteOffset" : 631040
        },
        {
            "buffer" : 0,
            "byteLength" : 5760,
            "byteOffset" : 646912
        }
    ],
    "samplers" : [
        {
            "magFilter" : 9729,
            "minFilter" : 9987
        }
    ],
    "buffers" : [
        {
            "byteLength" : 652672,
            "uri" : "data:application/octet-stream;base64,"
        }
    ]
}
